/* XPM */
static char *result[] = {
/* columns rows colors chars-per-pixel */
"32 32 85 1 ",
"  c #030303",
". c #0A0704",
"X c #0D0906",
"o c #0F0B08",
"O c #120F0A",
"+ c #19120D",
"@ c #231D14",
"# c #2A2116",
"$ c #282218",
"% c #30241A",
"& c #342A1C",
"* c #3A2B1F",
"= c #372E21",
"- c #3D2C20",
"; c #3D3224",
": c #423324",
"> c #443827",
", c #483628",
"< c #4B3A29",
"1 c #503C2A",
"2 c #564431",
"3 c #5C4733",
"4 c #554A31",
"5 c #634C36",
"6 c #665739",
"7 c #6C543B",
"8 c #65593F",
"9 c #6A5A40",
"0 c #7F6547",
"q c #7C6A4A",
"w c #877250",
"e c #8C7450",
"r c #867A52",
"t c #95855A",
"y c #A5865F",
"u c #9C9262",
"i c #A08E63",
"p c #B08F67",
"a c #AB9469",
"s c #A99C71",
"d c #B2A46F",
"f c #B6A474",
"g c #C8A776",
"h c #C3AE7B",
"j c #C4B37E",
"k c #CBB480",
"l c #C3BA85",
"z c #CAB883",
"x c #D9B480",
"c c #D7BD84",
"v c #D8BC84",
"b c #C8C78A",
"n c #DCC58C",
"m c #DFC98E",
"M c #D4CC91",
"N c #DACF95",
"B c #DBD092",
"V c #E6C58A",
"C c #EDC68B",
"Z c #E0CA8E",
"A c #F6CA8D",
"S c #FBD38F",
"D c #EECD91",
"F c #FECE94",
"G c #E3D196",
"H c #EED093",
"J c #EED398",
"K c #E7DC9E",
"L c #EFDC9C",
"P c #F5D093",
"I c #FDD194",
"U c #F5D598",
"Y c #FFD498",
"T c #F0DB9A",
"R c #FFDD9C",
"E c #FFE39F",
"W c #ECDFA0",
"Q c #F0E4A2",
"! c #FFE5A1",
"~ c #F7E8A4",
"^ c #FDEAA5",
"/ c #FFEDA9",
"( c #FFF4AC",
") c #FFF6B1",
"_ c #FFFDB3",
/* pixels */
"     .           .       .      ",
"               .                ",
"        .                      .",
"       .                        ",
"       .        .               ",
"                                ",
"          1MTJDJJDDQz-         .",
"        @%wT^RRE!RE/V7$@        ",
"       +uMmFFFFFFFFFAnbrX       ",
" .     Xf_!FFYIFFIIFF^_u        ",
"      9wxEFFIPIIIIIIFIYgq9@     ",
"      N~FFFPIFFIIIIPFFFY~J3 .   ",
"    X G/FFIISFFIIFIIIIFI^U2     ",
"      ZEFFIIFIIIIIIIIIFIRD2     ",
"      N!FFIIISIIIIFIIIFI!D2     ",
" X    G^FFIIFIFIIIFFIIFI!D2     ",
"    . Z!FIIIFIIPIIIIIIFI!D2     ",
"      mEFFIIFIYIIIIFIIFIED2     ",
"      Z!FFIIIIIFFIIIIFFFED2     ",
"      K)FFFISIFSFIIIIFFY(!5     ",
"      szCYIIIIIIIIFIIIFVjf,     ",
"      @;g(RFIIIFIIFFFE/a%@X     ",
"       .f(YFIFIIFFIFFR~t        ",
"X      O6wpPYIYYIYIECiq4.       ",
"          2K(!EE!!!_n-          ",
"  X       ,lnvVjccvBf&          ",
"          +;:::;::::=O          ",
"        .                       ",
"                      .         ",
"                          .     ",
"    .            .          .   ",
"                                "
};
