/* XPM */
static char *result[] = {
/* columns rows colors chars-per-pixel */
"32 32 222 2 ",
"   c black",
".  c #010000",
"X  c #000100",
"o  c #010100",
"O  c #000001",
"+  c #010001",
"@  c #000101",
"#  c #010101",
"$  c #020001",
"%  c #030001",
"&  c #020101",
"*  c #030101",
"=  c #000200",
"-  c #010200",
";  c #010300",
":  c #020300",
">  c #020201",
",  c #000002",
"<  c #010002",
"1  c #000102",
"2  c #010102",
"3  c #000003",
"4  c #010003",
"5  c #000103",
"6  c #020002",
"7  c #030002",
"8  c #020102",
"9  c #030102",
"0  c #030003",
"q  c #020103",
"w  c #000302",
"e  c #010302",
"r  c #010203",
"t  c #000303",
"y  c #010303",
"u  c #030203",
"i  c gray1",
"p  c #040000",
"a  c #050100",
"s  c #060000",
"d  c #070100",
"f  c #060001",
"g  c #050300",
"h  c #050201",
"j  c #040301",
"k  c #070300",
"l  c #040003",
"z  c #050103",
"x  c #060003",
"c  c #060103",
"v  c #070303",
"b  c #000400",
"n  c #010401",
"m  c #030400",
"M  c #020500",
"N  c #000600",
"B  c #030600",
"V  c #030700",
"C  c #000402",
"Z  c #000503",
"A  c #030502",
"S  c #000603",
"D  c #000703",
"F  c #040400",
"G  c #040401",
"H  c #070500",
"J  c #070401",
"K  c #040700",
"L  c #040601",
"P  c #060600",
"I  c #060502",
"U  c #000004",
"Y  c #010004",
"T  c #000104",
"R  c #010005",
"E  c #000105",
"W  c #010105",
"Q  c #020004",
"!  c #020104",
"~  c #030005",
"^  c #010204",
"/  c #000304",
"(  c #000205",
")  c #030204",
"_  c #020305",
"`  c #010106",
"'  c #010007",
"]  c #030006",
"[  c #010206",
"{  c #030307",
"}  c #040004",
"|  c #050004",
" . c #040104",
".. c #050104",
"X. c #050005",
"o. c #040204",
"O. c #060006",
"+. c #070006",
"@. c #060106",
"#. c #000404",
"$. c #010504",
"%. c #000405",
"&. c #020505",
"*. c #000704",
"=. c #000705",
"-. c #000406",
";. c #020407",
":. c #030407",
">. c #000706",
",. c #000607",
"<. c #040404",
"1. c #090200",
"2. c #080004",
"3. c #000902",
"4. c #040800",
"5. c #070900",
"6. c #070801",
"7. c #050803",
"8. c #070A03",
"9. c #030805",
"0. c #000806",
"q. c #000907",
"w. c #010907",
"e. c #030A07",
"r. c #040804",
"t. c #060A04",
"y. c #080800",
"u. c #090A00",
"i. c #090B00",
"p. c #090A01",
"a. c #0A0A00",
"s. c #040008",
"d. c #040108",
"f. c #000709",
"g. c #000808",
"h. c #020A08",
"j. c #000A0A",
"k. c #001600",
"l. c #001700",
"z. c #298216",
"x. c #2A8316",
"c. c #2F8316",
"v. c #2F8516",
"b. c #25831A",
"n. c #27831A",
"m. c #348219",
"M. c #35831A",
"N. c #36821A",
"B. c #388419",
"V. c #4F9B34",
"C. c #4F9F3B",
"Z. c #509B35",
"A. c #529B35",
"S. c #549B35",
"D. c #529C35",
"F. c #529E35",
"G. c #539E35",
"H. c #549C35",
"J. c #549F35",
"K. c #509F3B",
"L. c #4FA03A",
"P. c #53A13B",
"I. c #56A03E",
"U. c #58A03E",
"Y. c #5BA23E",
"T. c #5CA33E",
"R. c #5AC642",
"E. c #5DC742",
"W. c #59C946",
"Q. c #5FF046",
"!. c #66F041",
"~. c #67F041",
"^. c #60F046",
"/. c #69F041",
"(. c #FFF11E",
"). c #FFF41E",
"_. c #FFF51F",
"`. c #FFF320",
"'. c #FFF920",
"]. c #FEF921",
"[. c #8BFD6B",
"{. c #8CFF6A",
"}. c #8EFF6B",
"|. c #A5FF8D",
" X c #A6FF8C",
".X c #AAFF90",
"XX c #ABFF91",
"oX c #ABFF93",
"OX c #ACFF91",
"+X c #ACFF92",
"@X c #ADFF93",
"#X c #AEFF92",
"$X c #AFFF92",
"%X c #AEFF93",
"&X c #ADFF94",
"*X c #AFFF94",
"=X c #AFFF95",
"-X c #B0FF93",
";X c #B1FF93",
":X c #B3FF93",
">X c #B0FF94",
",X c #B1FF95",
"<X c #B2FF94",
"1X c #B3FF94",
"2X c #B2FF95",
"3X c #B1FF96",
"4X c #B3FF97",
"5X c #B4FF99",
"6X c #B4FF9A",
"7X c #B1FF9D",
"8X c #B2FF9C",
"9X c #B2FF9D",
"0X c #B2FF9E",
"qX c #B4FF9C",
"wX c #B4FF9D",
"eX c #B6FF9C",
"rX c #B4FF9E",
"tX c #BDFFB1",
"yX c #BDFFB2",
"uX c #C0FFB3",
"iX c #C1FFB3",
"pX c #C3FFB7",
/* pixels */
"g.B % g =.` <.i i i i i i i i i i i i i i i i i i <.' =.g % B g.",
"4.( s.R V r 5 <.i i i i i i i i i i i i i i i i <.2 r L W s.( 4.",
"$ s.p ) z a 5 2.i i i i i i i i i i i i i i i i 2.5 a .._ % d.$ ",
"H Q :.i.i E f.C i i i i i i i i i i i i i i i i C f.E i i.>.r J ",
"D m O.y.P 4 _.).'.'.'.].'.'.].'.'.'.'.'.'.'.'.'.)._.4 P y.O.f A ",
"] 7.a E Y (.@ f.i i i i i i i i i i i i i i i i f.@ (.Y E a y.$.",
"h.U C 0._.1 3.U i i i i i i i i i i i i i i i i U 3.1 _.0.C U p.",
"i y.2.S ).,.U . 8 &.q y 4 N N o b b b X u i i i u 4 ,.).S 2.y.i ",
"i i i i '.i i   % 9 4 n v.P.J.J.F.G.L.c.e 4 *  .l i i '.i i i i ",
"i i i i '.i i     . X l.~.yX8X9X9XqXyX/.l.X . + O i i '.i i i i ",
"i i i i '.i i   O   b.W.{.qX2X&X&X2XeX{.W.b.  + > i i '.i i i i ",
"i i i i '.i i   N k.R.pX5X1X%X-X-X%X1X5XpXR.k.N m i i '.i i i i ",
"i i i i '.i i X N.^.[.5XOXOX%X@X@X%XOXOX5X[.^.M.X i i '.i i i i ",
"i i i i '.i i X U.iXqX1X+X X-X-X-X-X X+X1XqXiXY.X i i '.i i i i ",
"i i i i '.i i   S.8X>X<X%X-X*X>X>X*X-X%X<X>XqXD.X i i '.i i i i ",
"i i i i '.i i   A.0X@X<X+X$X>X%X%X>X$X+X<X@X0XD.X i i '.i i i i ",
"i i i i '.i i   Z.9XoX<X%X-X*X+X+X*X-X%X<XoX7XD.X i i '.i i i i ",
"i i i i '.i i   A.qX,X;X*X>X%X3X3X%X>X*X;X=XwXH.X i i '.i i i i ",
"i i i i '.i i X I.iXeX:XXX|.,X;X;X,X|.XX:XeXuXT.= i i '.i i i i ",
"i i i i '.i i X m.^.[.6X#X+X*X.X.X*X+X#X6X[.Q.B.o i i '.i i i i ",
"i i i i '.i i   N k.E.pX5X1X#X-X-X#X1X5XpXE.k.N m i i '.i i i i ",
"i i i i ].i i       n.W.}.eX4X&X&X4XeX}.W.n.    : i i '.i i i i ",
"i i i i '.i i   # o X l.!.tXrX7X7XrXtX!.l.X o & O i i '.i i i i ",
"i i i i '.i i   6 < O M x.C.H.V.V.H.K.z.; O o l } i i '.i i i i ",
"i i d i ).-.G - + < > F X X X X   X X   o # o 7 o.c -.).i d i i ",
"R T 5 ,._.#.*.j i i i i i i i i i i i i i i i i x 3.#._.,.5 T 0 ",
"Z ( k E T `.t f.i i i i i i i i i i i i i i i i f.t `.T E k ^ [ ",
"7.+.X.U K 5 _.).'.'.].'.'.'.'.'.'.'.'.'.'.'.'.'.)._.5 K U X.v w.",
"I M ,.u.5.E 3., i i i i i i i i i i i i i i i i , 3.E 5.u.;./ 4.",
"$ Q ~ %.| a C +.i i i i i i i i i i i i i i i i +.C a | _ h s $ ",
"4.! t.w 1.C 3 a.i i i i i i i i i i i i i i i i p.3 w L ! j.Q 4.",
"] B Q h r.{ 8.6.i i i i i i i i i i i i i i i i 9.e.@.q.g Q B ] "
};
