/* XPM */
static char *_d619470f7c6436fd932e6abbfcc538bB8xFwgXM5df5GGgs[] = {
/* columns rows colors chars-per-pixel */
"32 32 148 2 ",
"   c black",
".  c #010101",
"X  c #020101",
"o  c #030201",
"O  c #020202",
"+  c #030202",
"@  c #030302",
"#  c #030203",
"$  c gray1",
"%  c #050000",
"&  c #070000",
"*  c #050202",
"=  c #040203",
"-  c #040303",
";  c #060202",
":  c #030402",
">  c #020403",
",  c #030204",
"<  c #030304",
"1  c #030305",
"2  c #040304",
"3  c #010405",
"4  c #030504",
"5  c #060707",
"6  c #0F0101",
"7  c #0D0E0E",
"8  c #120000",
"9  c #130101",
"0  c #180101",
"q  c gray7",
"w  c #230101",
"e  c #250000",
"r  c #2A0000",
"t  c #2B0000",
"y  c #2C0000",
"u  c #2F0101",
"i  c #350000",
"p  c #3C0000",
"a  c #3D0000",
"s  c #232222",
"d  c #560000",
"f  c #580000",
"g  c #5E0000",
"h  c #610000",
"j  c #630000",
"k  c #660000",
"l  c #6A0000",
"z  c #6C0000",
"x  c #7B0000",
"c  c gray48",
"v  c #7E7E7E",
"b  c #800000",
"n  c #860000",
"m  c #8A0000",
"M  c #9B0000",
"N  c #9C0000",
"B  c #9E0000",
"V  c #A10000",
"C  c #A50000",
"Z  c #B80000",
"A  c #BB0000",
"S  c #BD0000",
"D  c #C30000",
"F  c #C60000",
"G  c #CF0000",
"H  c #DB0000",
"J  c #DE0000",
"K  c #E80000",
"L  c #E90000",
"P  c #ED0000",
"I  c #EE0000",
"U  c #F40000",
"Y  c #F60000",
"T  c #F80000",
"R  c #FB0000",
"E  c red",
"W  c #FF0101",
"Q  c #FF0303",
"!  c #FF0404",
"~  c #FF0505",
"^  c #FF0909",
"/  c #FF0A0A",
"(  c #FF0B0B",
")  c #FF0D0D",
"_  c #FF0E0E",
"`  c #FF1010",
"'  c #FF1111",
"]  c #FF1212",
"[  c #FF2222",
"{  c #FE2323",
"}  c #FF2424",
"|  c #FF2525",
" . c #FF2626",
".. c #FF2727",
"X. c #FF2A2A",
"o. c #FF2D2D",
"O. c #FF3636",
"+. c #FF4747",
"@. c #FF4848",
"#. c #FF4A4A",
"$. c #FF5252",
"%. c #FF5A5A",
"&. c #FF5C5C",
"*. c #DA7A7A",
"=. c #FF6161",
"-. c #F86A6A",
";. c #FF6C6C",
":. c #808080",
">. c #898989",
",. c #A59C9C",
"<. c #A59D9D",
"1. c #9EA1A1",
"2. c #9CA2A2",
"3. c #99A4A4",
"4. c gray73",
"5. c #BCBCBC",
"6. c gray74",
"7. c #FF8A8A",
"8. c #FFAFAF",
"9. c #FFB0B0",
"0. c #FFB4B4",
"q. c #FFBDBD",
"w. c #FFBEBE",
"e. c gray76",
"r. c #CFD2D2",
"t. c #FFC0C0",
"y. c #FFC1C1",
"u. c #FFC2C2",
"i. c #FFC6C6",
"p. c #FFCCCC",
"a. c #FFDCDC",
"s. c #E6E9E9",
"d. c #EEE9E9",
"f. c #FFE8E8",
"g. c #FFEDED",
"h. c #FFEEEE",
"j. c #EDF9F9",
"k. c #EDFDFD",
"l. c #ECFFFF",
"z. c #FFF2F2",
"x. c #FFF5F5",
"c. c #FFF6F6",
"v. c #F6FFFF",
"b. c #FFF9F9",
"n. c #FFFBFB",
"m. c #FAFFFF",
"M. c #FFFEFE",
"N. c white",
/* pixels */
"1 > o o 1 = o o o o o o o o o o o o o o o o o o o o o o 1 1 1 1 ",
"4 1 2 = o o o o o e r r r r r r r r r r r r r = o o o o 1 1 1 1 ",
"o 2 o o o o o o = K R R R R R R R R R R R R R i o o o o 1 1 o o ",
"> o = o o w h h z Y E E E E E E E E E E E E E m h h a o o o o o ",
"4 > o o o n E E E E E E E E E E E E E E E E E E E E F o o o o o ",
"o 1 o o o b E E E E E E E E E E E E E E E E E E E E S o o o o o ",
"1 o o o o x E E E E E E E E E E E E E E E E E E E E Z o o o o o ",
"o o o a S J E E ^ 8.w.u.u.u.+.E E E E o.w.u.u.u.0.^ P S l o o o ",
"o o o k E E E ) } b.m.j.j.j.-.] E E ] $.M.v.j.j.d.{ ) E C o o o ",
"o o o h E E E 9.h.M.e.q q q ,.h.{ ^ a.z.M.>.q q s d.0.E B o o o ",
"o o o h E E E u.M.M.5.o o o 2.M.} ^ z.M.M.v o o 7 k.i.E B o o o ",
"o o o h E E E w.M.M.5.o o o 2.M.} ^ h.M.M.:.o o q j.u.E B o o o ",
"o o o h E E E w.M.M.5.o o o 2.M.} ^ h.M.M.:.o o q j.u.E B o o o ",
"o o o h E E E i.M.M.4.o o o 3.M.} ^ b.M.M.c o o 5 k.p.E B o o o ",
"o 1 o h E E E @.;.c.s.2.2.2.*.=.) ~ %.7.M.r.2.2.,.-.@.E B o o o ",
"o 1 o h E E E E ~ f.M.M.M.M.&.E E E E O.b.M.M.M.c.~ E E B o o o ",
"o o o g E E E E E } X.X.X.X.] E E E E ^ X.X.X.X.} E E E B o o o ",
"o o 8 z E E E E E E E E E E E E E E E E E E E E E E E E C 8 = o ",
"o e K Y E E E E E E E E E E E E E E E E E E E E E E E E R P d o ",
"o r E E E E E E E E E E E E E E E E E E E E E E E E E E E E h o ",
"o r R E E E E E E E E E E E E E E E E E E E E E E E E E E E h o ",
"o r R E E E E E E E E E E E E E E E E E E E E E E E E E E E h o ",
"o r R E E E E E E E E E E E E E E E E E E E E E E E E E E E h o ",
"o r R E E E E E E E E E E E E E E E E E E E E E E E E E E E h o ",
"o r R E E E E E E E E E E E E E E E E E E E E E E E E E E E h o ",
"o r R E E E E E E E E E E E E E E E E E E E E E E E E E E E h o ",
"o r R E E E E E E E E E E E E E E E E E E E E E E E E E E E h o ",
"o y E E E E E E E E E E E E E E E E E E E E E E E E E E E E k o ",
"o 8 M D E E E Z B B Z E E E D B B C R E E G B B C R E E H B y o ",
"o o o g E E E a o o a E E E g o o = R E E b o o = R E E V o o o ",
"o o o 0 h h h 6 o o 6 h h h 0 o o = f h h w o o = f h h y o o o ",
"o o o o o o o o o o o o o o o o o o o o o o o o o o o o o o o o "
};
