/* XPM */
static char *result[] = {
/* columns rows colors chars-per-pixel */
"32 32 147 2 ",
"   c black",
".  c #010100",
"X  c #010101",
"o  c #020101",
"O  c #030300",
"+  c #030201",
"@  c #020202",
"#  c #030302",
"$  c #030203",
"%  c gray1",
"&  c #040203",
"*  c #040303",
"=  c #030402",
"-  c #020403",
";  c #060600",
":  c #060601",
">  c #050502",
",  c #060602",
"<  c #030204",
"1  c #030304",
"2  c #030305",
"3  c #040304",
"4  c #010405",
"5  c #030504",
"6  c #040404",
"7  c gray2",
"8  c #090901",
"9  c #0B0B00",
"0  c #0B0B01",
"q  c #090902",
"w  c #0F0F01",
"e  c #101000",
"r  c #111100",
"t  c #121200",
"y  c #131300",
"u  c #161601",
"i  c #1F1F00",
"p  c #1E1E01",
"a  c #242400",
"s  c #272701",
"d  c #282801",
"f  c #292901",
"g  c #2A2A01",
"h  c #303001",
"j  c #323200",
"k  c #363600",
"l  c #3A3A00",
"z  c #3C3C00",
"x  c #3E3E00",
"c  c #3F3F00",
"v  c gray21",
"b  c gray23",
"n  c #404001",
"m  c #424200",
"M  c #434300",
"N  c #454500",
"B  c #4F4F00",
"V  c #515100",
"C  c #525200",
"Z  c #555500",
"A  c #616100",
"S  c #626200",
"D  c #696900",
"F  c #6C6C00",
"G  c #727200",
"H  c #737300",
"J  c #7F7F00",
"K  c #7A7A10",
"L  c gray26",
"P  c #808000",
"I  c #818100",
"U  c #828200",
"Y  c #8A8A00",
"T  c #888809",
"R  c #9A9A00",
"E  c #9D9D00",
"W  c #9E9E00",
"Q  c #A0A000",
"!  c #A2A200",
"~  c #A4A400",
"^  c #ACAC00",
"/  c #B0B000",
"(  c #B9B900",
")  c #BCBC00",
"_  c #BDBD00",
"`  c #C1C100",
"'  c #C2C200",
"]  c #C4C400",
"[  c #C5C500",
"{  c #CECE00",
"}  c #CFCF00",
"|  c #D7D700",
" . c #DBDB00",
".. c #DCDC00",
"X. c #DEDE00",
"o. c #EDED00",
"O. c #EEEE00",
"+. c #EFEF00",
"@. c #F1F100",
"#. c #F2F200",
"$. c #F3F300",
"%. c #F6F600",
"&. c #F7F700",
"*. c #F8F800",
"=. c #FAFA00",
"-. c #FCFC00",
";. c #FEFE00",
":. c yellow",
">. c #FFFF05",
",. c #FFFF0B",
"<. c #FFFF12",
"1. c #FEFE13",
"2. c #FFFF13",
"3. c #FEFE20",
"4. c #FFFF21",
"5. c #FFFF23",
"6. c #FFFF29",
"7. c #FFFF3C",
"8. c #FFFF40",
"9. c #FFFF41",
"0. c #FFFF42",
"q. c #F4F459",
"w. c #FDFD5F",
"e. c #FFFF61",
"r. c #F6F67A",
"t. c #FFFF7F",
"y. c #7F7F80",
"u. c #828280",
"i. c #A0A0A1",
"p. c #BEBEBC",
"a. c #BDBDBE",
"s. c #EAEA81",
"d. c #FFFF80",
"f. c #FFFF84",
"g. c #FFFF87",
"h. c #FFFF9F",
"j. c #FFFFA0",
"k. c #FFFFB7",
"l. c #CECECF",
"z. c #D5D5DA",
"x. c #FFFFCF",
"c. c #D3D3E1",
"v. c #D2D2E4",
"b. c #FFFFF5",
"n. c #FFFFF6",
"m. c #FFFFFE",
"M. c white",
/* pixels */
"2 - + # 1 * % % % % % % % % % % % % % % % % % % % % % % % % % % ",
"5 < 3 & % % % % % % %                   @ % % % % % % % % % % % ",
"o 3 # # % % % % % % % e t t t t t t t y : % % % % % % % % % % % ",
"= $ * 1 % % % X     e  .#.o.o.o.o.o.o.-.G       @ % % % % % % % ",
"4 - % % % @ @ d N x B #.:.:.:.:.:.:.:.:.Q k m N w @ % % % % % % ",
"% 1 % % % X   _ :.:.:.:.:.:.:.:.:.:.:.:.:.:.:.:.A   @ % % % % % ",
"1 # % % @ s x { :.:.:.:.:.:.:.:.:.:.:.:.:.:.:.:.Y l q @ % % % % ",
"% % % X   _ :.:.:.:.:.:.:.:.:.:.:.:.:.:.:.:.:.:.:.:.m   @ % % % ",
"% % @ p c { :.:.:.:.:.:.:.:.:.:.:.:.:.:.:.:.:.:.:.:.H z q @ % % ",
"% X   W :.:.:.:.:.:.:.:.:.:.:.:.:.:.:.:.:.:.:.:.:.:.:.:.m   % % ",
"% X   W :.:.:.:.:.:.:.:.:.:.:.:.:.:.:.:.:.:.:.:.:.:.:.:.m   % % ",
"% X   W :.:.:.:.:.:.:.:.:.:.:.:.:.:.:.:.:.:.:.:.:.:.:.:.m   % % ",
"@ h I { :.:.:.:.:.:.:.:.:.:.:.:.:.:.:.:.8.g.t.t.t.f.4.:.! F : @ ",
"  P :.:.:.:.:.:.:.:.:.:.:.:.:.:.:.:.:.:.d.M.M.M.M.M.0.:.:.o.t   ",
"  P :.:.:.:.:.:.:.:.:.:.:.:.:.:.:.:.7.j.x.M.M.M.M.M.k.h.6.o.t   ",
"  P :.:.:.:.:.:.:.:.:.:.:.:.:.:.:.:.e.M.M.M.M.M.M.M.M.M.0.o.t   ",
"  P :.:.:.:.:.:.:.:.:.:.:.:.:.:.:.:.e.M.i.v L L L b l.M.0.o.t   ",
"  P :.:.:.:.:.:.:.:.:.:.:.:.:.:.:.:.e.M.y.          a.M.0.o.t   ",
"  P :.:.:.:.:.:.:.:.:.:.:.:.{ j G :.e.M.y.          a.M.0.o.t   ",
"  P :.:.:.:.:.:.:.:.:.:.:.:.(   c :.w.M.u.  7 7 6   p.M.9.o.t   ",
"  J ;.:.:.:.:.:.:.:.:.:.@.z u % , i K 3.s.v.z.z.z.c.q.5.,.O.y   ",
"  H =.*.:.:.:.:.:.:.;.$...t X % @   Z &.r.m.b.b.n.M.8.:.%. .r   ",
"% : ; ~ ;.:.:.:.:.:.+.a 9 % % % % % > O T 1.<.<.<.2.>.:.V ; % % ",
"% @   E ;.:.:.:.:.:.O.y   % % % % % @   J ;.:.:.:.:.:.:.M   % % ",
"% @   E ;.:.:.:.:.:.O.y   % % % % % @   J ;.:.:.:.:.:.:.M   % % ",
"% @ X D ] O.:.:.=.[ ^ 0 X % % % % % @ X C ] X.:.:.:.} ' g X % % ",
"% % % X   ) :.:.O.y   % % % % % % % % % @   J ;.:.:.M   @ % % % ",
"% % % @ X U ' $.@.y   % % % % % % % % % @   J ;.| ` f X @ % % % ",
"% % % % % X   ` =.y   % % % % % % % % % @   J :.S . @ % % % % % ",
"% % % % % @ X F R 8 X % % % % % % % % % @ X n / h X % % % % % % ",
"% % % % % % % X   % % % % % % % % % % % % % @   @ % % % % % % % ",
"% % % % % % % % % % % % % % % % % % % % % % % % % % % % % % % % "
};
