/* XPM */
static char *result[] = {
/* columns rows colors chars-per-pixel */
"32 32 145 2 ",
"   c black",
".  c #010101",
"X  c #020101",
"o  c #030201",
"O  c #020202",
"+  c #030302",
"@  c #030203",
"#  c gray1",
"$  c #040203",
"%  c #040303",
"&  c #030402",
"*  c #020403",
"=  c #040400",
"-  c #060600",
";  c #070700",
":  c #060601",
">  c #050502",
",  c #060602",
"<  c #030204",
"1  c #030304",
"2  c #030305",
"3  c #040304",
"4  c #010405",
"5  c #030504",
"6  c #040404",
"7  c gray2",
"8  c #080801",
"9  c #0B0B00",
"0  c #0B0B01",
"q  c #090902",
"w  c #0F0F01",
"e  c #101000",
"r  c #111100",
"t  c #121200",
"y  c #131300",
"u  c #161601",
"i  c #1E1E01",
"p  c #202000",
"a  c #232300",
"s  c #272701",
"d  c #282801",
"f  c #292901",
"g  c #2F2F01",
"h  c #303001",
"j  c #323200",
"k  c #363600",
"l  c #3A3A00",
"z  c #3B3B00",
"x  c #3C3C00",
"c  c #3E3E00",
"v  c #3F3F00",
"b  c gray21",
"n  c gray23",
"m  c #414101",
"M  c #424200",
"N  c #454500",
"B  c #4F4F00",
"V  c #505000",
"C  c #535300",
"Z  c #565600",
"A  c #616100",
"S  c #6A6A00",
"D  c #6C6C00",
"F  c #6D6D00",
"G  c #727200",
"H  c #737300",
"J  c #747400",
"K  c #7B7B10",
"L  c gray26",
"P  c #808000",
"I  c #818100",
"U  c #838300",
"Y  c #8A8A00",
"T  c #898909",
"R  c #999900",
"E  c #9E9E00",
"W  c #A0A000",
"Q  c #A2A200",
"!  c #A5A500",
"~  c #ABAB00",
"^  c #B0B000",
"/  c #B9B900",
"(  c #BDBD00",
")  c #C0C000",
"_  c #C1C100",
"`  c #C2C200",
"'  c #C3C300",
"]  c #C5C500",
"[  c #CECE00",
"{  c #CFCF00",
"}  c #D7D700",
"|  c #DADA00",
" . c #DBDB00",
".. c #DEDE00",
"X. c #EDED00",
"o. c #EEEE00",
"O. c #F0F000",
"+. c #F2F200",
"@. c #F3F300",
"#. c #F6F600",
"$. c #F8F800",
"%. c #F9F900",
"&. c #FAFA00",
"*. c #FBFB00",
"=. c #FCFC00",
"-. c #FEFE00",
";. c yellow",
":. c #FFFF05",
">. c #FFFF0B",
",. c #FFFF12",
"<. c #FFFF13",
"1. c #FFFF21",
"2. c #FFFF23",
"3. c #FFFF29",
"4. c #FFFF3C",
"5. c #FFFF3F",
"6. c #FFFF40",
"7. c #FFFF41",
"8. c #FFFF42",
"9. c #F4F458",
"0. c #FDFD5F",
"q. c #FFFF61",
"w. c #F6F67B",
"e. c #FFFF7F",
"r. c #7F7F80",
"t. c #828280",
"y. c #A0A0A1",
"u. c #BEBEBC",
"i. c #BDBDBE",
"p. c #EAEA82",
"a. c #FFFF80",
"s. c #FFFF84",
"d. c #FFFF87",
"f. c #FFFF9F",
"g. c #FFFFA0",
"h. c #FFFFB7",
"j. c #CECECF",
"k. c #D5D5DA",
"l. c #FFFFCF",
"z. c #D3D3E0",
"x. c #D2D2E5",
"c. c #FFFFF5",
"v. c #FFFFF6",
"b. c #FFFFFE",
"n. c white",
/* pixels */
"2 * o + 1 % # # # # # # # # # # # # # # # # # # # # # # # # # # ",
"5 < 3 $ # # # O   O # # # # # # # # # # # # #   . # # # # # # # ",
"X 3 + + # # . g ^ m . O # # # # # # # # # . 8 R F . O # # # # # ",
"& @ % 1 # O   A ;.P   . # # # # # # # # #   t %.`   . # # # # # ",
"4 * # O . d ) } ;.P   . # # # # # # # # #   t O.@.' U . O # # # ",
"# 1 # O   M ;.;.;.P   . # # # # # # # # #   t X.;.;.(   . # # # ",
"1 + . f _ { ;.;.;...] C . O # # # # # . 0 ~ ] &.;.;.o.] S . O # ",
"# #   M ;.;.;.;.;.;.;.P   O # # # # #   t X.;.;.;.;.;.;.E   . # ",
"# #   M ;.;.;.;.;.;.;.P   O # # # # #   t X.;.;.;.;.;.;.E   . # ",
"# # - V ;.:.<.,.,.,.<.T = > # # # # # 9 a o.;.;.;.;.;.;.! ; : # ",
"  e | #.;.5.b.v.c.c.n.w.$.Z   O # . r  .@.-.;.;.;.;.;.;.$.*.J   ",
"  t X.>.2.9.z.k.k.k.x.p.1.K p , # u z O.;.;.;.;.;.;.;.;.;.;.P   ",
"  t X.7.n.u.  6 7 7   t.n.0.;.v   / ;.;.;.;.;.;.;.;.;.;.;.;.P   ",
"  t X.8.n.i.          r.n.q.;.G j [ ;.;.;.;.;.;.;.;.;.;.;.;.P   ",
"  t X.8.n.i.          r.n.q.;.;.;.;.;.;.;.;.;.;.;.;.;.;.;.;.P   ",
"  t X.8.n.j.n L L L b y.n.q.;.;.;.;.;.;.;.;.;.;.;.;.;.;.;.;.P   ",
"  t X.8.n.n.n.n.n.n.n.n.n.q.;.;.;.;.;.;.;.;.;.;.;.;.;.;.;.;.P   ",
"  t X.3.f.h.n.n.n.n.n.l.g.4.;.;.;.;.;.;.;.;.;.;.;.;.;.;.;.;.P   ",
"  t X.;.;.8.n.n.n.n.n.a.;.;.;.;.;.;.;.;.;.;.;.;.;.;.;.;.;.;.P   ",
"O : D Q ;.1.s.e.e.e.d.6.;.;.;.;.;.;.;.;.;.;.;.;.;.;.;.;.[ I h O ",
"# #   M ;.;.;.;.;.;.;.;.;.;.;.;.;.;.;.;.;.;.;.;.;.;.;.;.E   . # ",
"# #   M ;.;.;.;.;.;.;.;.;.;.;.;.;.;.;.;.;.;.;.;.;.;.;.;.E   . # ",
"# #   M ;.;.;.;.;.;.;.;.;.;.;.;.;.;.;.;.;.;.;.;.;.;.;.;.E   . # ",
"# # O q x H ;.;.;.;.;.;.;.;.;.;.;.;.;.;.;.;.;.;.;.;.[ v i O # # ",
"# # # O   M ;.;.;.;.;.;.;.;.;.;.;.;.;.;.;.;.;.;.;.;.(   . # # # ",
"# # # # O q l Y ;.;.;.;.;.;.;.;.;.;.;.;.;.;.;.;.[ c s O # # # # ",
"# # # # # O   A ;.;.;.;.;.;.;.;.;.;.;.;.;.;.;.;.(   . # # # # # ",
"# # # # # # O w N M k W ;.;.;.;.;.;.;.;.+.B c N d O O # # # # # ",
"# # # # # # # O       G =.X.X.X.X.X.X.+. .e     . # # # # # # # ",
"# # # # # # # # # # # : y t t t t t t t e # # # # # # # # # # # ",
"# # # # # # # # # # # O                   # # # # # # # # # # # ",
"# # # # # # # # # # # # # # # # # # # # # # # # # # # # # # # # "
};
