/* XPM */
static char *result[] = {
/* columns rows colors chars-per-pixel */
"32 32 145 2 ",
"   c black",
".  c #010101",
"X  c #020101",
"o  c #020200",
"O  c #030300",
"+  c #030201",
"@  c #020202",
"#  c #030302",
"$  c #030203",
"%  c gray1",
"&  c #040203",
"*  c #040303",
"=  c #030402",
"-  c #020403",
";  c #070700",
":  c #060601",
">  c #030204",
",  c #030304",
"<  c #030305",
"1  c #040304",
"2  c #010405",
"3  c #030504",
"4  c #040404",
"5  c gray2",
"6  c #090902",
"7  c #0F0F01",
"8  c #101000",
"9  c #111100",
"0  c #121200",
"q  c #131300",
"w  c #121201",
"e  c #1E1E01",
"r  c #232300",
"t  c #262600",
"y  c #272701",
"u  c #282801",
"i  c #303001",
"p  c #363600",
"a  c #3A3A00",
"s  c #3C3C00",
"d  c #3E3E00",
"f  c #3F3F00",
"g  c gray21",
"h  c gray23",
"j  c #424200",
"k  c #454500",
"l  c #4F4F00",
"z  c #585800",
"x  c #616100",
"c  c #686800",
"v  c #6A6A00",
"b  c #6B6B00",
"n  c #6F6F00",
"m  c #717100",
"M  c #727200",
"N  c #737300",
"B  c #747400",
"V  c #777700",
"C  c #797900",
"Z  c #7D7D00",
"A  c #7E7E00",
"S  c #7F7F00",
"D  c gray26",
"F  c #808000",
"G  c #818100",
"H  c #838300",
"J  c #868600",
"K  c #8A8A00",
"L  c #8C8C00",
"P  c #8D8D00",
"I  c #909000",
"U  c #9C9C00",
"Y  c #9D9D00",
"T  c #9E9E00",
"R  c #A0A000",
"E  c #A5A500",
"W  c #AAAA00",
"Q  c #B1B100",
"!  c #B8B800",
"~  c #BDBD00",
"^  c #C3C300",
"/  c #C5C500",
"(  c #CACA00",
")  c #CECE00",
"_  c #D1D100",
"`  c #D8D800",
"'  c #DADA00",
"]  c #DBDB00",
"[  c #E7E700",
"{  c #E9E900",
"}  c #EDED00",
"|  c #EEEE00",
" . c #EFEF00",
".. c #F0F000",
"X. c #F1F100",
"o. c #F2F200",
"O. c #F4F400",
"+. c #F5F500",
"@. c #F8F800",
"#. c #F9F900",
"$. c #FAFA00",
"%. c #FBFB00",
"&. c #FCFC00",
"*. c #FDFD00",
"=. c #FEFE00",
"-. c yellow",
";. c #FFFF05",
":. c #FFFF0A",
">. c #FFFF12",
",. c #FFFF13",
"<. c #FFFF1E",
"1. c #FFFF21",
"2. c #FFFF23",
"3. c #FFFF29",
"4. c #FFFF3C",
"5. c #FFFF3F",
"6. c #FFFF40",
"7. c #FFFF41",
"8. c #FFFF42",
"9. c #F4F458",
"0. c #FDFD5F",
"q. c #FFFF61",
"w. c #F6F67B",
"e. c #FFFF7F",
"r. c #7F7F80",
"t. c #828280",
"y. c #A0A0A1",
"u. c #BEBEBC",
"i. c #BDBDBE",
"p. c #EAEA82",
"a. c #FFFF80",
"s. c #FFFF84",
"d. c #FFFF87",
"f. c #FFFF9F",
"g. c #FFFFA0",
"h. c #FFFFB7",
"j. c #CECECF",
"k. c #D5D5DA",
"l. c #FFFFCF",
"z. c #D3D3E0",
"x. c #D2D2E5",
"c. c #FFFFF5",
"v. c #FFFFF6",
"b. c #FFFFFE",
"n. c white",
/* pixels */
"% % % % % % % % % % % 8 0 0 0 O o 9 0 q : % % % % % % % * # 1 + ",
"% % % % % % % .     8 ] o.} } r   ` } &.M       @ % % % , # & # ",
"% % % % % @ @ u k d l o.-.-.-.j   _ -.-.R p j k 7 @ % % % % % , ",
"% % % % % .   ~ -.-.-.-.-.-.-.b   ! -.-.-.-.-.-.x   @ % % % % * ",
"% % % % @ y d ) -.-.-.-.-.-.-.P   U -.-.-.-.-.-.K a 6 @ % % % % ",
"% % % .   ~ -.-.-.-.-.-.-.-.-.W   Z -.-.-.-.-.-.-.-.j   @ % % % ",
"% % @ e f ) -.-.-.=.-.-.-.-.-.!   b -.-.-.-.-.-.-.-.N s 6 @ % % ",
"% .   T -.-.-.-.-.-.-.-.=.-.-._   j -.-.-.-.-.-.-.-.-.-.j   % % ",
"% .   U -.-.-.-.-.-.-.-.-.-.-.{   t -.-.-.-.-.-.-.-.-.-.j   % % ",
"% .   I -.;.,.>.>.>.,.*.*.-.-.O.    O.-.&.=.-.-.-.-.-.-.E ; : % ",
"@ i J [ -.5.b.v.c.c.n.w.=.-.-.-.    ' -.-.=.-.-.-.-.-.-.@.%.B @ ",
"  S #.:.2.9.z.k.k.k.x.p.<.-.-.-.z   ^ -.-.-.-.-.-.-.-.-.-.-.F   ",
"  C O.7.n.u.  4 5 5   t.n.0.-.-.b   W -.-.-.-.-.-.-.-.-.-.-.F   ",
"  m ..8.n.i.          r.n.q.-.=.L   U -.-.-.-.-.-.-.-.-.-.-.F   ",
"  n  .8.n.i.          r.n.q.-.-.W   Z -.-.-.-.-.-.-.-.-.-.-.F   ",
"  m  .8.n.j.h D D D g y.n.q.-.-._ z U -.-.-.-.-.-.-.-.-.-.-.F   ",
"  V X.8.n.n.n.n.n.n.n.n.n.q.-.=.-.-.-.-.-.-.-.-.-.-.-.-.-.-.F   ",
"  A +.3.f.h.n.n.n.n.n.l.g.4.-.-.-.-.-.-.-.-.-.-.-.-.-.-.-.-.F   ",
"  S $.-.-.8.n.n.n.n.n.a.-.-.-.-.-.-.-.-.-.-.-.-.-.-.-.-.-.-.F   ",
"  B ..( -.1.s.e.e.e.d.6.-.-.-.-.-.-.-.-.-.-.-.-.-.-.-.-.) G i   ",
"% : ; Y -.-.-.-.-.-.-.-.-.-.-.-.-.-.-.-.-.-.-.-.-.-.-.-.T   . % ",
"% .   T -.-.-.-.-.-.-.-.-.-.-.-.-.-.-.-.-.-.-.-.-.-.-.-.T   . % ",
"% .   T -.-.-.-.-.-.-.-.-.-.-.-.-.-.-.-.-.-.-.-.-.-.-.-.T   . % ",
"% @ . v / | -.-.-.-.-.-.-.-.-.-.-.-.-.-.-.-.-.-.-.-.) f e @ % % ",
"% % % .   ~ -.-.-.-.-.-.-.-.-.-.-.-.-.-.-.-.-.-.-.-.~   . % % % ",
"% % % @ . H Q T -.-.-.-.-.-.-.-.-.-.-.-.-.-.-.-.) d y @ % % % % ",
"% % % % % .   c -.-.-.-.-.-.-.-.-.-.-.-.-.-.-.-.~   . % % % % % ",
"% % % % % @ . w k j p R -.-.-.-.-.-.-.-.o.l d k u @ @ % % % % % ",
"% % % % % % % @       M &.} } } } } } o.] 8     . % % % % % % % ",
"% % % % % % % % % % % : q 0 0 0 0 0 0 0 8 % % % % % % % % % % % ",
"- > 1 $ - , # % % % % @                   % % % % % % % % % % % ",
"< 3 X = 2 % , % % % % % % % % % % % % % % % % % % % % % % % % % "
};
