/* XPM */
static char *result[] = {
/* columns rows colors chars-per-pixel */
"32 32 60 1 ",
"  c #010000",
". c #030000",
"X c #020100",
"o c #020200",
"O c #030200",
"+ c #020300",
"@ c #030300",
"# c #030301",
"$ c #030102",
"% c gray1",
"& c #040000",
"* c #050100",
"= c #040300",
"- c #040301",
"; c #060200",
": c #060201",
"> c #040203",
", c #070302",
"< c #060203",
"1 c #000500",
"2 c #000501",
"3 c #030400",
"4 c #020401",
"5 c #000600",
"6 c #000403",
"7 c #000503",
"8 c #030502",
"9 c #020403",
"0 c #010602",
"q c #040400",
"w c #050400",
"e c #040402",
"r c #030104",
"t c #020204",
"y c #020305",
"u c #030305",
"i c #030106",
"p c #030207",
"a c #020307",
"s c #050004",
"d c #060105",
"f c #050304",
"g c #070206",
"h c #010504",
"j c #000405",
"k c #030504",
"l c #020605",
"z c #010506",
"x c #000407",
"c c #020607",
"v c #040404",
"b c #040406",
"n c #020109",
"m c #02000B",
"M c #1E28FF",
"N c #1F28FF",
"B c #1E29FF",
"V c #1E2BFF",
"C c #2126FE",
"Z c #202BFF",
/* pixels */
"u9O4ydv%%%%%%%%%%%%%%%%%%vdy4O9u",
"krfsl$Ov%%%%%%%%%%%%%%%%vO$lsfrk",
"Xf#*2jOk%%%%%%%%%%%%%%%%kOj2*#fX",
"8$<m%w,$%%%%%%%%%%%%%%%%$,w%m<$8",
"xh5ut+NBCCCCCCCCCCCCCCCCBN+tu5hx",
">ujw3V ,%%%%%%%%%%%%%%%%, V3wju>",
"bq$<NXg#%%%%%%%%%%%%%%%%#gXN<$qb",
"%uk>M:#6%%%%%%%%%%%%%%%%6#:M>ku%",
"%%%%C%%%%%%%%%%%%%%%%%%%%%%C%%%%",
"%%%%C%%%%%%%%%%%%%%%%%%%%%%C%%%%",
"%%%%C%%%%%%%%%%%%%%%%%%%%%%C%%%%",
"%%%%C%%%%%%%%%%%%%%%%%%%%%%C%%%%",
"%%%%C%%%%%%%%%%%%%%%%%%%%%%C%%%%",
"%%%%C%%%%%%%%%%%%%%%%%%%%%%C%%%%",
"%%%%C%%%%%%%%%%%%%%%%%%%%%%C%%%%",
"%%%%C%%%%%%%%%%%%%%%%%%%%%%C%%%%",
"%%%%C%%%%%%%%%%%%%%%%%%%%%%C%%%%",
"%%%%C%%%%%%%%%%%%%%%%%%%%%%C%%%%",
"%%%%C%%%%%%%%%%%%%%%%%%%%%%C%%%%",
"%%%%C%%%%%%%%%%%%%%%%%%%%%%C%%%%",
"%%%%C%%%%%%%%%%%%%%%%%%%%%%C%%%%",
"%%%%C%%%%%%%%%%%%%%%%%%%%%%C%%%%",
"%%%%C%%%%%%%%%%%%%%%%%%%%%%C%%%%",
"%%%%C%%%%%%%%%%%%%%%%%%%%%%C%%%%",
"%%z%B;97%%%%%%%%%%%%%%%%79;B%z%%",
"e=O:N&g9%%%%%%%%%%%%%%%%9g&N:O=e",
"d-xw=Z.,%%%%%%%%%%%%%%%%,.Z=wx-d",
"a01#iONBCCCCCCCCCCCCCCCCBNOi#10a",
"kr:npwgo%%%%%%%%%%%%%%%%ogwpn:rk",
"Xe4*2j$0%%%%%%%%%%%%%%%%0$j2*4eX",
"k$b$c$@b%%%%%%%%%%%%%%%%b@$c$b$k",
">9$4a:bu%%%%%%%%%%%%%%%%ub:a4$9>"
};
