/* XPM */
static char *result[] = {
/* columns rows colors chars-per-pixel */
"32 32 177 2 ",
"   c black",
".  c #010000",
"X  c #000100",
"o  c #000001",
"O  c #010001",
"+  c #000101",
"@  c #010101",
"#  c #020000",
"$  c #020001",
"%  c #030001",
"&  c #000201",
"*  c #000301",
"=  c #030201",
"-  c #030301",
";  c #000002",
":  c #000102",
">  c #010102",
",  c #000003",
"<  c #010003",
"1  c #000103",
"2  c #010103",
"3  c #030002",
"4  c #020102",
"5  c #020003",
"6  c #000202",
"7  c #010302",
"8  c #010203",
"9  c #000303",
"0  c #030203",
"q  c #020303",
"w  c gray1",
"e  c #040000",
"r  c #050100",
"t  c #040101",
"y  c #060000",
"u  c #070100",
"i  c #060001",
"p  c #070300",
"a  c #050002",
"s  c #040003",
"d  c #060003",
"f  c #000501",
"g  c #020500",
"h  c #000701",
"j  c #000402",
"k  c #000603",
"l  c #070500",
"z  c #040700",
"x  c #060600",
"c  c #050502",
"v  c #000004",
"b  c #010004",
"n  c #000104",
"m  c #000105",
"M  c #030005",
"N  c #000304",
"B  c #000205",
"V  c #000006",
"C  c #020306",
"Z  c #040004",
"A  c #050004",
"S  c #050005",
"D  c #050007",
"F  c #060006",
"G  c #070006",
"H  c #000404",
"J  c #010404",
"K  c #000405",
"L  c #000406",
"P  c #000607",
"I  c #040404",
"U  c #090200",
"Y  c #080002",
"T  c #090700",
"R  c #080004",
"E  c #000902",
"W  c #070900",
"Q  c #000804",
"!  c #000806",
"~  c #080800",
"^  c #090A00",
"/  c #090B00",
"(  c #0A0A00",
")  c #000709",
"_  c #160000",
"`  c #170000",
"'  c #821627",
"]  c #831A24",
"[  c #831A25",
"{  c #831629",
"}  c #83162D",
"|  c #85162D",
" . c #821933",
".. c #831A33",
"X. c #821A35",
"o. c #841937",
"O. c #9B344D",
"+. c #9B344E",
"@. c #9B354F",
"#. c #9F3B4E",
"$. c #9F3B4F",
"%. c #9B3550",
"&. c #9B3551",
"*. c #9B3552",
"=. c #9C3550",
"-. c #9C3551",
";. c #9E3550",
":. c #9E3551",
">. c #9C3552",
",. c #9F3552",
"<. c #A03A4D",
"1. c #A13B51",
"2. c #A03E55",
"3. c #A03E57",
"4. c #A23E5A",
"5. c #A33E5A",
"6. c #C94657",
"7. c #C64258",
"8. c #C7425B",
"9. c #F0465C",
"0. c #F0465D",
"q. c #F04163",
"w. c #F04165",
"e. c #F04166",
"r. c #FFF11E",
"t. c #FFF41E",
"y. c #FFF51F",
"u. c #FFF320",
"i. c #FFF920",
"p. c #FD6B89",
"a. c #FF6A8A",
"s. c #FF6B8C",
"d. c #FF8DA3",
"f. c #FF8CA4",
"g. c #FF90A9",
"h. c #FF91A9",
"j. c #FF91AA",
"k. c #FF91AB",
"l. c #FF92AA",
"z. c #FF93AA",
"x. c #FF92AB",
"c. c #FF93AB",
"v. c #FF94AB",
"b. c #FF92AC",
"n. c #FF93AC",
"m. c #FF92AD",
"M. c #FF93AD",
"N. c #FF93AE",
"B. c #FF93AF",
"V. c #FF94AD",
"C. c #FF94AE",
"Z. c #FF95AE",
"A. c #FF95AF",
"S. c #FF96AF",
"D. c #FF9DAF",
"F. c #FF93B0",
"G. c #FF93B1",
"H. c #FF94B0",
"J. c #FF95B0",
"K. c #FF94B1",
"L. c #FF97B1",
"P. c #FF99B2",
"I. c #FF9AB3",
"U. c #FF9DB0",
"Y. c #FF9CB1",
"T. c #FF9DB1",
"R. c #FF9EB1",
"E. c #FF9CB2",
"W. c #FF9DB2",
"Q. c #FF9CB3",
"!. c #FF9EB2",
"~. c #FF9CB4",
"^. c #FFB1BC",
"/. c #FFB2BC",
"(. c #FFB3BF",
"). c #FFB3C0",
"_. c #FFB7C2",
/* pixels */
"~ d 1 M l h I w w w w w w w w w w w w w w w w w w I h l M 1 d ~ ",
"R g Q f Y j 1 I w w w w w w w w w w w w w w w w I 1 j Y f Q g R ",
": Q v K A r 1 R w w w w w w w w w w w w w w w w R 1 r A K v Q : ",
"D j ! / w m ) j w w w w w w w w w w w w w w w w j ) m w / ! j D ",
"p i F ~ x < y.t.i.i.i.i.i.i.i.i.i.i.i.i.i.i.i.i.t.y.< x ~ F i p ",
"k ~ r m b r.+ ) w w w w w w w w w w w w w w w w ) + r.b m r ~ k ",
"( v j ! y.: E v w w w w w w w w w w w w w w w w v E : y.! j v ( ",
"w ~ R k t.P v . 5 c 7 - * y y O e e e . q w w w 0 v P t.k R ~ w ",
"w w w w i.w w   1 8 * t | 1.,.,.;.:.<.} = * 2 J N w w i.w w w w ",
"w w w w i.w w     o . ` w./.Y.T.T.E./.e.` . o + X w w i.w w w w ",
"w w w w i.w w   X   ] 6.a.Q.J.v.v.J.~.a.6.]   + 4 w w i.w w w w ",
"w w w w i.w w   y _ 7._.P.K.M.N.N.M.K.P._.7._ y s w w i.w w w w ",
"w w w w i.w w . X.0.p.P.k.j.M.c.c.M.j.k.P.p.0.... w w i.w w w w ",
"w w w w i.w w . 3.).Q.K.x.f.N.N.N.N.f.x.K.Q.).4.. w w i.w w w w ",
"w w w w i.w w   *.Y.C.H.n.N.V.C.C.V.N.n.H.C.E.-.. w w i.w w w w ",
"w w w w i.w w   %.R.c.H.l.m.C.n.n.C.m.l.H.c.R.-.. w w i.w w w w ",
"w w w w i.w w   @.T.z.H.n.N.V.x.x.V.N.n.H.z.U.=.. w w i.w w w w ",
"w w w w i.w w   &.E.A.F.V.C.M.S.S.M.C.V.F.Z.W.>.. w w i.w w w w ",
"w w w w i.w w . 2.).~.G.h.d.A.B.B.A.d.h.G.~.(.5.# w w i.w w w w ",
"w w w w i.w w .  .0.p.I.b.l.V.g.g.V.l.b.I.p.9.o.O w w i.w w w w ",
"w w w w i.w w   y _ 8._.P.K.b.N.N.b.K.P._.8._ y s w w i.w w w w ",
"w w w w i.w w       [ 6.s.~.L.v.v.L.~.s.6.[     3 w w i.w w w w ",
"w w w w i.w w   @ O . ` q.^.!.D.U.!.^.q.` . O > X w w i.w w w w ",
"w w w w i.w w   6 & X a { #.>.O.+.>.$.' % X O N H w w i.w w w w ",
"w w u w t.L d $ + & 4 Z . . . .   . .   O @ O n C d L t.w u w w ",
"V n 1 P y.H E d w w w w w w w w w w w w w w w w d E H y.P 1 n V ",
"h B p m n u.9 ) w w w w w w w w w w w w w w w w ) 9 u.n m p B h ",
"T G S v z 1 y.t.i.i.i.i.i.i.i.i.i.i.i.i.i.i.i.i.t.y.1 z v S G T ",
"R g P ^ W m E ; w w w w w w w w w w w w w w w w ; E m W ^ P g R ",
": V M K A r j G w w w w w w w w w w w w w w w w G j r A K M V : ",
"R j ( j U j , ( w w w w w w w w w w w w w w w w ( , j U j ( j R ",
"k d j M T P ( ~ w w w w w w w w w w w w w w w w ~ ( P T M j d k "
};
