/* XPM */
static char *result[] = {
/* columns rows colors chars-per-pixel */
"32 32 145 2 ",
"   c black",
".  c #010101",
"X  c #020101",
"o  c #030201",
"O  c #020202",
"+  c #030302",
"@  c #030203",
"#  c gray1",
"$  c #040203",
"%  c #040303",
"&  c #030402",
"*  c #020403",
"=  c #040400",
"-  c #060600",
";  c #070700",
":  c #060601",
">  c #050502",
",  c #060602",
"<  c #030204",
"1  c #030304",
"2  c #030305",
"3  c #040304",
"4  c #010405",
"5  c #030504",
"6  c #040404",
"7  c gray2",
"8  c #080801",
"9  c #0B0B00",
"0  c #0B0B01",
"q  c #090902",
"w  c #0F0F01",
"e  c #101000",
"r  c #111100",
"t  c #121200",
"y  c #131300",
"u  c #161601",
"i  c #1E1E01",
"p  c #202000",
"a  c #232300",
"s  c #272701",
"d  c #282801",
"f  c #292901",
"g  c #2F2F01",
"h  c #303001",
"j  c #323200",
"k  c #363600",
"l  c #3A3A00",
"z  c #3B3B00",
"x  c #3C3C00",
"c  c #3E3E00",
"v  c #3F3F00",
"b  c gray21",
"n  c gray23",
"m  c #414101",
"M  c #424200",
"N  c #454500",
"B  c #4F4F00",
"V  c #505000",
"C  c #535300",
"Z  c #565600",
"A  c #616100",
"S  c #6A6A00",
"D  c #6C6C00",
"F  c #6D6D00",
"G  c #727200",
"H  c #737300",
"J  c #747400",
"K  c #7B7B10",
"L  c gray26",
"P  c #808000",
"I  c #818100",
"U  c #838300",
"Y  c #8A8A00",
"T  c #898909",
"R  c #999900",
"E  c #9E9E00",
"W  c #A0A000",
"Q  c #A2A200",
"!  c #A5A500",
"~  c #ABAB00",
"^  c #B0B000",
"/  c #B9B900",
"(  c #BDBD00",
")  c #C0C000",
"_  c #C1C100",
"`  c #C2C200",
"'  c #C3C300",
"]  c #C5C500",
"[  c #CECE00",
"{  c #CFCF00",
"}  c #D7D700",
"|  c #DADA00",
" . c #DBDB00",
".. c #DEDE00",
"X. c #EDED00",
"o. c #EEEE00",
"O. c #F0F000",
"+. c #F2F200",
"@. c #F3F300",
"#. c #F6F600",
"$. c #F8F800",
"%. c #F9F900",
"&. c #FAFA00",
"*. c #FBFB00",
"=. c #FCFC00",
"-. c #FEFE00",
";. c yellow",
":. c #FFFF05",
">. c #FFFF0B",
",. c #FFFF12",
"<. c #FFFF13",
"1. c #FFFF21",
"2. c #FFFF23",
"3. c #FFFF29",
"4. c #FFFF3C",
"5. c #FFFF3F",
"6. c #FFFF40",
"7. c #FFFF41",
"8. c #FFFF42",
"9. c #F4F458",
"0. c #FDFD5F",
"q. c #FFFF61",
"w. c #F6F67B",
"e. c #FFFF7F",
"r. c #7F7F80",
"t. c #828280",
"y. c #A0A0A1",
"u. c #BEBEBC",
"i. c #BDBDBE",
"p. c #EAEA82",
"a. c #FFFF80",
"s. c #FFFF84",
"d. c #FFFF87",
"f. c #FFFF9F",
"g. c #FFFFA0",
"h. c #FFFFB7",
"j. c #CECECF",
"k. c #D5D5DA",
"l. c #FFFFCF",
"z. c #D3D3E0",
"x. c #D2D2E5",
"c. c #FFFFF5",
"v. c #FFFFF6",
"b. c #FFFFFE",
"n. c white",
/* pixels */
"2 * o + 1 % # # # # # # O                   # # # # # # # # # # ",
"5 < 3 $ # # # # # # # # : t t t t t t t t e # # # # # # # # # # ",
"X 3 + + # # # # O       D X.X.X.X.X.X.X.X.| -     . # # # # # # ",
"& @ % 1 # # # O q M M M Q ;.3.8.8.8.8.7.>.#.V M M f O O # # # # ",
"4 * # # # # O   x ;.;.;.;.;.f.n.n.n.n.n.2.;.;.;.;._   . # # # # ",
"# 1 # # # O q M H ;.;.;.1.8.h.n.j.i.i.u.9.5.:.;.;.{ M d O # # # ",
"1 + # # O   l ;.;.;.;.;.s.n.n.n.n       z.b.<.;.;.;.;.)   . # # ",
"# # # O w A Y ;.;.;.;.;.e.n.n.n.L     6 k.v.,.;.;.;.;.} A g O # ",
"# # #   N ;.;.;.;.;.;.;.e.n.n.n.L     7 k.c.,.;.;.;.;.;.;.^   # ",
"# # #   M ;.;.;.;.;.;.;.e.n.n.n.L     7 k.c.,.;.;...P P P m O # ",
"# # #   k ;.;.;.;.;.;.;.d.n.n.n.b       x.n.<.;.;.]       . # # ",
"# O : G W ;.;.;.;.;.;.;.6.a.l.n.y.r.r.t.p.w.T P P C . . . O # # ",
"#   y =.;.;.;.;.;.;.;.;.;.;.g.n.n.n.n.n.1.$.=     . # # # # # # ",
"#   t X.;.;.;.;.;.;.;.;.;.;.4.q.q.q.q.0.K Z > O O O # # # # # # ",
"#   t X.;.;.;.;.;.;.;.;.;.;.;.;.;.;.;.;.p   # # # # # # # # # # ",
"#   t X.;.;.;.;.;.;.;.;.;.;.;.;.;.;.G v , O # # # # # # # # # # ",
"#   t X.;.;.;.;.;.;.;.;.;.;.;.;.;.;.j   # # # # # # # # # # # # ",
"#   t X.;.;.;.;.;.;.;.;.;.;.;.;.;.;.[ / u . # # # # # # # # # # ",
"#   t X.;.;.;.;.;.;.;.;.;.;.;.;.;.;.;.;.z r # # # # # # # # # # ",
"#   t +.;.;.;.;.;.;.;.;.;.;.;.;.;.;.;.;.O. .9     . # # # # # # ",
"#   e  .+.;.;.;.;.;.;.;.;.;.;.;.;.;.;.;.;.@.a t t 0 # # # # # # ",
"# # # e B ;.;.;.;.;.;.;.;.;.;.;.;.;.;.;.;.-.o.X.X.~       . # # ",
"# # #   c ;.;.;.;.;.;.;.;.;.;.;.;.;.;.;.;.;.;.;.;.] t t t 8 # # ",
"# # #   N ;.;.;.;.;.;.;.;.;.;.;.;.;.;.;.;.;.;.;.;.&.X.O.%.R   # ",
"# # # . d ( [ ;.;.;.;.;.;.;.;.;.;.;.;.;.;.;.;.;.;.;.;.@.` F . # ",
"# # # # O   c ;.;.;.;.;.;.;.;.;.;.;.;.;.;.;.;.;.;.;.;.'   . # # ",
"# # # # O . s ( [ ;.;.;.;.;.;.;.;.;.;.;.;.;.;.;.;.o.( U . O # # ",
"# # # # # # O   v ;.;.;.;.;.;.;.;.;.;.;.;.;.;.;.;.]   . # # # # ",
"# # # # # # # . i E E E [ ;.;.;.;.;.;.;.;.$.! E E S . O # # # # ",
"# # # # # # # # O       I ;.;.;.;.;.;.;.;.*.;     . # # # # # # ",
"# # # # # # # # # . . . h P P P P P P P P J : . . O # # # # # # ",
"# # # # # # # # # # # # O                   # # # # # # # # # # "
};
